<svg width="5" height="15" viewBox="0 0 5 15" xmlns="http://www.w3.org/2000/svg">
  <path
    d="M2.49998 11.9375C3.07422 11.9375 3.55221 11.4976 3.60058 10.9253L4.34715 2.0088C4.39061 1.49167 4.21527 0.98045 3.86425 0.598629C3.51366 0.217299 3.01856 0 2.49998 0C1.98141 0 1.48631 0.217299 1.13569 0.598629C0.78461 0.98045 0.609361 1.49167 0.652821 2.0088L1.39939 10.9253C1.44775 11.4976 1.92575 11.9375 2.49998 11.9375Z"/>
  <path
    d="M2.49996 12.5938C1.83537 12.5938 1.29681 13.1323 1.29681 13.7969C1.29681 14.4615 1.83537 15 2.49996 15C3.16454 15 3.7031 14.4615 3.7031 13.7969C3.7031 13.1323 3.16454 12.5938 2.49996 12.5938Z"/>
</svg>
