<svg xmlns="http://www.w3.org/2000/svg" viewBox="0 0 53.943 53.943">
  <defs/>
  <path fill="#fddba1" d="M52.48 41.377c-1.898-3.587-8.899-7.69-8.899-7.69-1.584-.903-3.495-1.004-4.399.606 0 0-2.274 2.728-2.853 3.12-2.643 1.791-5.091 1.722-7.562-.75l-5.743-5.743-5.743-5.743c-2.472-2.472-2.541-4.919-.75-7.562.392-.579 3.12-2.853 3.12-2.853 1.609-.904 1.509-2.815.606-4.399 0 0-4.103-7.001-7.69-8.899a3.932 3.932 0 00-4.621.695L5.408 4.694c-8.045 8.045-4.084 17.129 3.961 25.174l7.353 7.353 7.353 7.353c8.045 8.045 17.129 12.007 25.174 3.961l2.537-2.537a3.934 3.934 0 00.694-4.621z"/>
  <path fill="#f19700" d="M39.659 53.942c-1.054 0-2.128-.127-3.223-.38-4.132-.956-8.529-3.742-13.069-8.282L8.662 30.575c-4.54-4.54-7.327-8.938-8.282-13.069C-.767 12.549.687 8 4.7 3.987L7.237 1.45a4.908 4.908 0 015.795-.872c3.795 2.008 7.912 8.98 8.085 9.276.734 1.288.964 2.61.652 3.733-.234.844-.768 1.531-1.545 1.994-1.22 1.021-2.646 2.286-2.871 2.596-1.601 2.363-1.413 4.246.632 6.291l11.487 11.486c2.045 2.044 3.927 2.232 6.294.629.307-.222 1.572-1.647 2.592-2.867.463-.778 1.151-1.312 1.996-1.546 1.121-.309 2.443-.081 3.721.646.306.18 7.279 4.296 9.287 8.092a4.908 4.908 0 01-.872 5.796l-2.537 2.536c-3.125 3.129-6.577 4.702-10.294 4.702zM10.721 2.002c-.757 0-1.503.296-2.07.862L6.114 5.401c-3.542 3.542-4.781 7.354-3.786 11.654.87 3.762 3.477 7.834 7.748 12.105l14.705 14.705c4.271 4.271 8.344 6.878 12.105 7.748 4.302.992 8.113-.244 11.655-3.787l2.537-2.536a2.92 2.92 0 00.519-3.446c-1.743-3.294-8.453-7.256-8.521-7.296-.777-.442-1.597-.614-2.186-.45-.36.1-.633.323-.835.683l-.104.151c-.711.853-2.433 2.883-3.061 3.308-3.148 2.134-6.119 1.84-8.83-.871L16.572 25.883c-2.71-2.711-3.003-5.682-.871-8.83.426-.629 2.456-2.35 3.309-3.062l.151-.104c.359-.202.583-.475.683-.835.163-.588-.007-1.409-.457-2.197-.034-.057-3.996-6.767-7.29-8.51a2.934 2.934 0 00-1.376-.343z"/>
  <path fill="#f19700" d="M29.937 25.005a1 1 0 01-1-1v-12a1 1 0 112 0v12a1 1 0 01-1 1z"/>
  <path fill="#f19700" d="M41.937 25.005h-12a1 1 0 110-2h12a1 1 0 110 2z"/>
  <path fill="#f19700" d="M29.937 25.005a.999.999 0 01-.707-1.707l17-17a.999.999 0 111.414 1.414l-17 17a.997.997 0 01-.707.293z"/>
  <path fill="#f19700" d="M39.673 42.608c-.034 0-.069-.002-.104-.005-6.895-.716-11.41-5.097-11.599-5.283a1 1 0 011.403-1.425c.042.04 4.228 4.077 10.402 4.718a1.001 1.001 0 01-.102 1.995zM17.67 26.608a.991.991 0 01-.634-.229c-.23-.188-5.637-4.715-6.359-11.668a1.001 1.001 0 01.892-1.099c.553-.042 1.041.344 1.098.892.635 6.12 5.592 10.291 5.642 10.332a1.002 1.002 0 01-.639 1.772z"/>
</svg>
