<svg xmlns="http://www.w3.org/2000/svg" xmlns:xlink="http://www.w3.org/1999/xlink"><symbol id="burger" viewBox="0 0 26 18">
  <rect fill="#373737" width="26" height="2" rx="1"/>
  <rect fill="#373737" y="8" width="26" height="2" rx="1"/>
  <rect fill="#373737" y="16" width="26" height="2" rx="1"/>
</symbol><symbol id="cross" viewBox="0 0 16 16">
  <path fill="#373737" d="M15.7331 1.55576C16.089 1.19986 16.089 0.622828 15.7331 0.266927C15.3772 -0.0889751 14.8001 -0.0889757 14.4442 0.266926L7.9999 6.71127L1.55576 0.267132C1.19986 -0.0887695 0.622828 -0.0887694 0.266926 0.267132C-0.0889751 0.623034 -0.0889757 1.20006 0.266926 1.55597L6.71106 8.0001L0.267062 14.4441C-0.0888393 14.8 -0.0888392 15.377 0.267062 15.7329C0.622964 16.0888 1.19999 16.0888 1.5559 15.7329L7.9999 9.28894L14.4441 15.7331C14.8 16.089 15.377 16.089 15.7329 15.7331C16.0888 15.3772 16.0888 14.8002 15.7329 14.4443L9.28873 8.0001L15.7331 1.55576Z"/>
</symbol><symbol id="warning" viewBox="0 0 5 15">
  <path d="M2.49998 11.9375C3.07422 11.9375 3.55221 11.4976 3.60058 10.9253L4.34715 2.0088C4.39061 1.49167 4.21527 0.98045 3.86425 0.598629C3.51366 0.217299 3.01856 0 2.49998 0C1.98141 0 1.48631 0.217299 1.13569 0.598629C0.78461 0.98045 0.609361 1.49167 0.652821 2.0088L1.39939 10.9253C1.44775 11.4976 1.92575 11.9375 2.49998 11.9375Z"/>
  <path d="M2.49996 12.5938C1.83537 12.5938 1.29681 13.1323 1.29681 13.7969C1.29681 14.4615 1.83537 15 2.49996 15C3.16454 15 3.7031 14.4615 3.7031 13.7969C3.7031 13.1323 3.16454 12.5938 2.49996 12.5938Z"/>
</symbol></svg>